<svg xmlns="http://www.w3.org/2000/svg" viewBox="0 0 220 132">
  <defs>
    <linearGradient id="bg" x1="0" y1="0" x2="1" y2="1"><stop offset="0" stop-color="#231246"/><stop offset=".55" stop-color="#101632"/><stop offset="1" stop-color="#040713"/></linearGradient>
    <radialGradient id="skin" cx="55%" cy="38%" r="46%"><stop stop-color="#ffd2b9"/><stop offset=".42" stop-color="#b15f7f"/><stop offset="1" stop-color="#21102f"/></radialGradient>
    <radialGradient id="light" cx="68%" cy="28%" r="42%"><stop stop-color="#ff7adf" stop-opacity=".65"/><stop offset="1" stop-color="#000" stop-opacity="0"/></radialGradient>
  </defs>
  <rect width="220" height="132" fill="url(#bg)"/>
  <rect width="220" height="132" fill="url(#light)"/>
  <path d="M84 132c-2-37 5-71 30-92 23-20 54-18 72 2 16 19 14 50 2 90z" fill="#080817" opacity=".92"/>
  <ellipse cx="139" cy="58" rx="33" ry="43" fill="url(#skin)"/>
  <path d="M113 23c23-23 70-14 80 14 5 15-1 35-15 50-5-20-17-31-35-36-13-3-23-11-30-28z" fill="#090818"/>
  <path d="M96 47c13-36 50-51 79-37-24 4-39 16-48 36-7 15-14 30-31 42z" fill="#110a21"/>
  <path d="M145 62c12 1 23-2 33-8" stroke="#7fe6ff" stroke-width="2" opacity=".55"/>
  <path d="M132 77c10 6 22 6 34 1" stroke="#ff7dbd" stroke-width="2" opacity=".45"/>
  <circle cx="151" cy="57" r="2" fill="#f3fbff" opacity=".8"/>
  <circle cx="176" cy="54" r="2" fill="#f3fbff" opacity=".68"/>
  <path d="M20 112c33-9 67-13 101 0 32 12 65 9 99-5v25H20z" fill="#030511" opacity=".72"/>
</svg>
